<?xml version="1.0" encoding="UTF-8"?>
<svg width="1383px" height="646px" viewBox="0 0 1383 646" version="1.1" xmlns="http://www.w3.org/2000/svg" xmlns:xlink="http://www.w3.org/1999/xlink">
    <!-- Generator: Sketch 51.3 (57544) - http://www.bohemiancoding.com/sketch -->
    <title>bg_image</title>
    <desc>Created with Sketch.</desc>
    <defs></defs>
    <g id="Login" stroke="none" stroke-width="1" fill="none" fill-rule="evenodd">
        <g id="01_Login_ente" transform="translate(0.000000, -312.000000)" fill="#CCE4F9" fill-rule="nonzero">
            <g id="Group-4" transform="translate(-165.000000, 281.000000)">
                <g id="bg_image" transform="translate(39.000000, 26.000000)">
                    <g id="Group-2" transform="translate(1120.000000, 50.000000)">
                        <path d="M213,406 C194.222319,406 179,390.777681 179,372 C179,353.222319 194.222319,338 213,338 C231.777681,338 247,353.222319 247,372 C247,390.777681 231.777681,406 213,406 Z M213,402.222222 C229.691272,402.222222 243.222222,388.691272 243.222222,372 C243.222222,355.308728 229.691272,341.777778 213,341.777778 C196.308728,341.777778 182.777778,355.308728 182.777778,372 C182.777778,388.691272 196.308728,402.222222 213,402.222222 Z M213,394.666667 C200.481546,394.666667 190.333333,384.518454 190.333333,372 C190.333333,359.481546 200.481546,349.333333 213,349.333333 C225.518454,349.333333 235.666667,359.481546 235.666667,372 C235.666667,384.518454 225.518454,394.666667 213,394.666667 Z" id="Combined-Shape-Copy-11"></path>
                        <path d="M106,183 C100.477153,183 96,178.522847 96,173 C96,167.477153 100.477153,163 106,163 C111.522847,163 116,167.477153 116,173 C116,178.522847 111.522847,183 106,183 Z M106,181.888889 C110.909198,181.888889 114.888889,177.909198 114.888889,173 C114.888889,168.090802 110.909198,164.111111 106,164.111111 C101.090802,164.111111 97.1111111,168.090802 97.1111111,173 C97.1111111,177.909198 101.090802,181.888889 106,181.888889 Z M106,179.666667 C102.318102,179.666667 99.3333333,176.681898 99.3333333,173 C99.3333333,169.318102 102.318102,166.333333 106,166.333333 C109.681898,166.333333 112.666667,169.318102 112.666667,173 C112.666667,176.681898 109.681898,179.666667 106,179.666667 Z" id="Combined-Shape-Copy-14"></path>
                        <path d="M14,352 C6.2680135,352 0,345.731986 0,338 C0,330.268014 6.2680135,324 14,324 C21.7319865,324 28,330.268014 28,338 C28,345.731986 21.7319865,352 14,352 Z M14,350.444444 C20.8728769,350.444444 26.4444444,344.872877 26.4444444,338 C26.4444444,331.127123 20.8728769,325.555556 14,325.555556 C7.12712311,325.555556 1.55555556,331.127123 1.55555556,338 C1.55555556,344.872877 7.12712311,350.444444 14,350.444444 Z M14,347.333333 C8.84534234,347.333333 4.66666667,343.154658 4.66666667,338 C4.66666667,332.845342 8.84534234,328.666667 14,328.666667 C19.1546577,328.666667 23.3333333,332.845342 23.3333333,338 C23.3333333,343.154658 19.1546577,347.333333 14,347.333333 Z" id="Combined-Shape-Copy-10"></path>
                        <path d="M69,494 L101,494 C102.104569,494 103,494.895431 103,496 L103,528 C103,529.104569 102.104569,530 101,530 L69,530 C67.8954305,530 67,529.104569 67,528 L67,496 C67,494.895431 67.8954305,494 69,494 Z M71,496 C69.8954305,496 69,496.895431 69,498 L69,526 C69,527.104569 69.8954305,528 71,528 L99,528 C100.104569,528 101,527.104569 101,526 L101,498 C101,496.895431 100.104569,496 99,496 L71,496 Z M75,500 L95,500 C96.1045695,500 97,500.895431 97,502 L97,522 C97,523.104569 96.1045695,524 95,524 L75,524 C73.8954305,524 73,523.104569 73,522 L73,502 C73,500.895431 73.8954305,500 75,500 Z" id="Combined-Shape-Copy-7"></path>
                        <path d="M229,0 L245,0 C246.104569,-2.02906125e-16 247,0.8954305 247,2 L247,18 C247,19.1045695 246.104569,20 245,20 L229,20 C227.895431,20 227,19.1045695 227,18 L227,2 C227,0.8954305 227.895431,2.02906125e-16 229,0 Z M230.111111,1.11111111 C229.006542,1.11111111 228.111111,2.00654161 228.111111,3.11111111 L228.111111,16.8888889 C228.111111,17.9934584 229.006542,18.8888889 230.111111,18.8888889 L243.888889,18.8888889 C244.993458,18.8888889 245.888889,17.9934584 245.888889,16.8888889 L245.888889,3.11111111 C245.888889,2.00654161 244.993458,1.11111111 243.888889,1.11111111 L230.111111,1.11111111 Z M232.333333,3.33333333 L241.666667,3.33333333 C242.771236,3.33333333 243.666667,4.22876383 243.666667,5.33333333 L243.666667,14.6666667 C243.666667,15.7712362 242.771236,16.6666667 241.666667,16.6666667 L232.333333,16.6666667 C231.228764,16.6666667 230.333333,15.7712362 230.333333,14.6666667 L230.333333,5.33333333 C230.333333,4.22876383 231.228764,3.33333333 232.333333,3.33333333 Z" id="Combined-Shape-Copy-15"></path>
                    </g>
                    <g id="Group-2-Copy" transform="translate(90.000000, 67.000000)">
                        <path d="M48,458 C29.2223185,458 14,442.777681 14,424 C14,405.222319 29.2223185,390 48,390 C66.7776815,390 82,405.222319 82,424 C82,442.777681 66.7776815,458 48,458 Z M48,454.222222 C64.6912724,454.222222 78.2222222,440.691272 78.2222222,424 C78.2222222,407.308728 64.6912724,393.777778 48,393.777778 C31.3087276,393.777778 17.7777778,407.308728 17.7777778,424 C17.7777778,440.691272 31.3087276,454.222222 48,454.222222 Z M48,446.666667 C35.4815457,446.666667 25.3333333,436.518454 25.3333333,424 C25.3333333,411.481546 35.4815457,401.333333 48,401.333333 C60.5184543,401.333333 70.6666667,411.481546 70.6666667,424 C70.6666667,436.518454 60.5184543,446.666667 48,446.666667 Z" id="Combined-Shape-Copy-11"></path>
                        <path d="M149,230 L213,230 C214.104569,230 215,230.895431 215,232 L215,296 C215,297.104569 214.104569,298 213,298 L149,298 C147.895431,298 147,297.104569 147,296 L147,232 C147,230.895431 147.895431,230 149,230 Z M152.777778,233.777778 C151.673208,233.777778 150.777778,234.673208 150.777778,235.777778 L150.777778,292.222222 C150.777778,293.326792 151.673208,294.222222 152.777778,294.222222 L209.222222,294.222222 C210.326792,294.222222 211.222222,293.326792 211.222222,292.222222 L211.222222,235.777778 C211.222222,234.673208 210.326792,233.777778 209.222222,233.777778 L152.777778,233.777778 Z M160.333333,241.333333 L201.666667,241.333333 C202.771236,241.333333 203.666667,242.228764 203.666667,243.333333 L203.666667,284.666667 C203.666667,285.771236 202.771236,286.666667 201.666667,286.666667 L160.333333,286.666667 C159.228764,286.666667 158.333333,285.771236 158.333333,284.666667 L158.333333,243.333333 C158.333333,242.228764 159.228764,241.333333 160.333333,241.333333 Z" id="Combined-Shape-Copy"></path>
                        <path d="M106,141 C100.477153,141 96,136.522847 96,131 C96,125.477153 100.477153,121 106,121 C111.522847,121 116,125.477153 116,131 C116,136.522847 111.522847,141 106,141 Z M106,139.888889 C110.909198,139.888889 114.888889,135.909198 114.888889,131 C114.888889,126.090802 110.909198,122.111111 106,122.111111 C101.090802,122.111111 97.1111111,126.090802 97.1111111,131 C97.1111111,135.909198 101.090802,139.888889 106,139.888889 Z M106,137.666667 C102.318102,137.666667 99.3333333,134.681898 99.3333333,131 C99.3333333,127.318102 102.318102,124.333333 106,124.333333 C109.681898,124.333333 112.666667,127.318102 112.666667,131 C112.666667,134.681898 109.681898,137.666667 106,137.666667 Z" id="Combined-Shape-Copy-14"></path>
                        <path d="M155,406 L171,406 C172.104569,406 173,406.895431 173,408 L173,424 C173,425.104569 172.104569,426 171,426 L155,426 C153.895431,426 153,425.104569 153,424 L153,408 C153,406.895431 153.895431,406 155,406 Z M156.111111,407.111111 C155.006542,407.111111 154.111111,408.006542 154.111111,409.111111 L154.111111,422.888889 C154.111111,423.993458 155.006542,424.888889 156.111111,424.888889 L169.888889,424.888889 C170.993458,424.888889 171.888889,423.993458 171.888889,422.888889 L171.888889,409.111111 C171.888889,408.006542 170.993458,407.111111 169.888889,407.111111 L156.111111,407.111111 Z M158.333333,409.333333 L167.666667,409.333333 C168.771236,409.333333 169.666667,410.228764 169.666667,411.333333 L169.666667,420.666667 C169.666667,421.771236 168.771236,422.666667 167.666667,422.666667 L158.333333,422.666667 C157.228764,422.666667 156.333333,421.771236 156.333333,420.666667 L156.333333,411.333333 C156.333333,410.228764 157.228764,409.333333 158.333333,409.333333 Z" id="Combined-Shape-Copy-7"></path>
                        <path d="M181,0 L213,0 C214.104569,-2.02906125e-16 215,0.8954305 215,2 L215,34 C215,35.1045695 214.104569,36 213,36 L181,36 C179.895431,36 179,35.1045695 179,34 L179,2 C179,0.8954305 179.895431,2.02906125e-16 181,0 Z M183,2 C181.895431,2 181,2.8954305 181,4 L181,32 C181,33.1045695 181.895431,34 183,34 L211,34 C212.104569,34 213,33.1045695 213,32 L213,4 C213,2.8954305 212.104569,2 211,2 L183,2 Z M187,6 L207,6 C208.104569,6 209,6.8954305 209,8 L209,28 C209,29.1045695 208.104569,30 207,30 L187,30 C185.895431,30 185,29.1045695 185,28 L185,8 C185,6.8954305 185.895431,6 187,6 Z" id="Combined-Shape-Copy-15"></path>
                    </g>
                    <g id="Group-9-Copy" transform="translate(1383.000000, 5.000000)">
                        <path d="M54,320 C46.2680135,320 40,313.731986 40,306 C40,298.268014 46.2680135,292 54,292 C61.7319865,292 68,298.268014 68,306 C68,313.731986 61.7319865,320 54,320 Z M54,318.444444 C60.8728769,318.444444 66.4444444,312.872877 66.4444444,306 C66.4444444,299.127123 60.8728769,293.555556 54,293.555556 C47.1271231,293.555556 41.5555556,299.127123 41.5555556,306 C41.5555556,312.872877 47.1271231,318.444444 54,318.444444 Z M54,315.333333 C48.8453423,315.333333 44.6666667,311.154658 44.6666667,306 C44.6666667,300.845342 48.8453423,296.666667 54,296.666667 C59.1546577,296.666667 63.3333333,300.845342 63.3333333,306 C63.3333333,311.154658 59.1546577,315.333333 54,315.333333 Z" id="Combined-Shape-Copy-9"></path>
                        <path d="M96,36 C86.0588745,36 78,27.9411255 78,18 C78,8.0588745 86.0588745,0 96,0 C105.941125,0 114,8.0588745 114,18 C114,27.9411255 105.941125,36 96,36 Z M96,34 C104.836556,34 112,26.836556 112,18 C112,9.163444 104.836556,2 96,2 C87.163444,2 80,9.163444 80,18 C80,26.836556 87.163444,34 96,34 Z M96,30 C89.372583,30 84,24.627417 84,18 C84,11.372583 89.372583,6 96,6 C102.627417,6 108,11.372583 108,18 C108,24.627417 102.627417,30 96,30 Z" id="Combined-Shape-Copy-16"></path>
                        <path d="M2,138 L66,138 C67.1045695,138 68,138.895431 68,140 L68,204 C68,205.104569 67.1045695,206 66,206 L2,206 C0.8954305,206 1.3527075e-16,205.104569 0,204 L0,140 C-1.3527075e-16,138.895431 0.8954305,138 2,138 Z M5.77777778,141.777778 C4.67320828,141.777778 3.77777778,142.673208 3.77777778,143.777778 L3.77777778,200.222222 C3.77777778,201.326792 4.67320828,202.222222 5.77777778,202.222222 L62.2222222,202.222222 C63.3267917,202.222222 64.2222222,201.326792 64.2222222,200.222222 L64.2222222,143.777778 C64.2222222,142.673208 63.3267917,141.777778 62.2222222,141.777778 L5.77777778,141.777778 Z M13.3333333,149.333333 L54.6666667,149.333333 C55.7712362,149.333333 56.6666667,150.228764 56.6666667,151.333333 L56.6666667,192.666667 C56.6666667,193.771236 55.7712362,194.666667 54.6666667,194.666667 L13.3333333,194.666667 C12.2287638,194.666667 11.3333333,193.771236 11.3333333,192.666667 L11.3333333,151.333333 C11.3333333,150.228764 12.2287638,149.333333 13.3333333,149.333333 Z" id="Combined-Shape-Copy"></path>
                        <path d="M92,503 L124,503 C125.104569,503 126,503.895431 126,505 L126,537 C126,538.104569 125.104569,539 124,539 L92,539 C90.8954305,539 90,538.104569 90,537 L90,505 C90,503.895431 90.8954305,503 92,503 Z M94,505 C92.8954305,505 92,505.895431 92,507 L92,535 C92,536.104569 92.8954305,537 94,537 L122,537 C123.104569,537 124,536.104569 124,535 L124,507 C124,505.895431 123.104569,505 122,505 L94,505 Z M98,509 L118,509 C119.104569,509 120,509.895431 120,511 L120,531 C120,532.104569 119.104569,533 118,533 L98,533 C96.8954305,533 96,532.104569 96,531 L96,511 C96,509.895431 96.8954305,509 98,509 Z" id="Combined-Shape-Copy-3"></path>
                    </g>
                    <g id="Group-9-Copy-2" transform="translate(809.000000, 96.000000)">
                        <path d="M50,345 C42.2680135,345 36,338.731986 36,331 C36,323.268014 42.2680135,317 50,317 C57.7319865,317 64,323.268014 64,331 C64,338.731986 57.7319865,345 50,345 Z M50,343.444444 C56.8728769,343.444444 62.4444444,337.872877 62.4444444,331 C62.4444444,324.127123 56.8728769,318.555556 50,318.555556 C43.1271231,318.555556 37.5555556,324.127123 37.5555556,331 C37.5555556,337.872877 43.1271231,343.444444 50,343.444444 Z M50,340.333333 C44.8453423,340.333333 40.6666667,336.154658 40.6666667,331 C40.6666667,325.845342 44.8453423,321.666667 50,321.666667 C55.1546577,321.666667 59.3333333,325.845342 59.3333333,331 C59.3333333,336.154658 55.1546577,340.333333 50,340.333333 Z" id="Combined-Shape-Copy-9"></path>
                        <path d="M18,36 C8.0588745,36 0,27.9411255 0,18 C0,8.0588745 8.0588745,0 18,0 C27.9411255,0 36,8.0588745 36,18 C36,27.9411255 27.9411255,36 18,36 Z M18,34 C26.836556,34 34,26.836556 34,18 C34,9.163444 26.836556,2 18,2 C9.163444,2 2,9.163444 2,18 C2,26.836556 9.163444,34 18,34 Z M18,30 C11.372583,30 6,24.627417 6,18 C6,11.372583 11.372583,6 18,6 C24.627417,6 30,11.372583 30,18 C30,24.627417 24.627417,30 18,30 Z" id="Combined-Shape-Copy-16"></path>
                        <path d="M65,117 L129,117 C130.104569,117 131,117.895431 131,119 L131,183 C131,184.104569 130.104569,185 129,185 L65,185 C63.8954305,185 63,184.104569 63,183 L63,119 C63,117.895431 63.8954305,117 65,117 Z M68.7777778,120.777778 C67.6732083,120.777778 66.7777778,121.673208 66.7777778,122.777778 L66.7777778,179.222222 C66.7777778,180.326792 67.6732083,181.222222 68.7777778,181.222222 L125.222222,181.222222 C126.326792,181.222222 127.222222,180.326792 127.222222,179.222222 L127.222222,122.777778 C127.222222,121.673208 126.326792,120.777778 125.222222,120.777778 L68.7777778,120.777778 Z M76.3333333,128.333333 L117.666667,128.333333 C118.771236,128.333333 119.666667,129.228764 119.666667,130.333333 L119.666667,171.666667 C119.666667,172.771236 118.771236,173.666667 117.666667,173.666667 L76.3333333,173.666667 C75.2287638,173.666667 74.3333333,172.771236 74.3333333,171.666667 L74.3333333,130.333333 C74.3333333,129.228764 75.2287638,128.333333 76.3333333,128.333333 Z" id="Combined-Shape-Copy"></path>
                        <path d="M142,519 L174,519 C175.104569,519 176,519.895431 176,521 L176,553 C176,554.104569 175.104569,555 174,555 L142,555 C140.895431,555 140,554.104569 140,553 L140,521 C140,519.895431 140.895431,519 142,519 Z M144,521 C142.895431,521 142,521.895431 142,523 L142,551 C142,552.104569 142.895431,553 144,553 L172,553 C173.104569,553 174,552.104569 174,551 L174,523 C174,521.895431 173.104569,521 172,521 L144,521 Z M148,525 L168,525 C169.104569,525 170,525.895431 170,527 L170,547 C170,548.104569 169.104569,549 168,549 L148,549 C146.895431,549 146,548.104569 146,547 L146,527 C146,525.895431 146.895431,525 148,525 Z" id="Combined-Shape-Copy-3"></path>
                    </g>
                </g>
            </g>
        </g>
    </g>
</svg>