<?xml version="1.0" encoding="UTF-8"?>
<svg width="239px" height="197px" viewBox="0 0 239 197" version="1.1" xmlns="http://www.w3.org/2000/svg" xmlns:xlink="http://www.w3.org/1999/xlink">
    <!-- Generator: Sketch 51.3 (57544) - http://www.bohemiancoding.com/sketch -->
    <title>img_dispositivi</title>
    <desc>Created with Sketch.</desc>
    <defs>
        <linearGradient x1="50.0028741%" y1="-3.19086912e-15%" x2="50.0028741%" y2="100.008981%" id="linearGradient-1">
            <stop stop-color="#219DDA" offset="0%"></stop>
            <stop stop-color="#238ED0" offset="14%"></stop>
            <stop stop-color="#296BBA" offset="50%"></stop>
            <stop stop-color="#2D55AC" offset="81%"></stop>
            <stop stop-color="#2E4DA7" offset="100%"></stop>
        </linearGradient>
        <linearGradient x1="50%" y1="0%" x2="50%" y2="100%" id="linearGradient-2">
            <stop stop-color="#219DDA" offset="0%"></stop>
            <stop stop-color="#238ED0" offset="14%"></stop>
            <stop stop-color="#296BBA" offset="50%"></stop>
            <stop stop-color="#2D55AC" offset="81%"></stop>
            <stop stop-color="#2E4DA7" offset="100%"></stop>
        </linearGradient>
    </defs>
    <g id="Dichiarazione_web" stroke="none" stroke-width="1" fill="none" fill-rule="evenodd">
        <g id="REV_03_07_da-bozza-a-online_copia-e-incolla-link" transform="translate(-869.000000, -350.000000)">
            <g id="modale" transform="translate(209.000000, 214.000000)">
                <g id="img_dispositivi" transform="translate(660.000000, 136.000000)">
                    <g id="a1bf0ff4-cc26-4992-8623-04de04b297a8" fill="#F1F6FC" fill-rule="nonzero">
                        <polygon id="Shape" points="238 196.5 119 196.5 0 196.5 0 139.5 0 82.5 238.5 0 238 82.5 238 139.5"></polygon>
                    </g>
                    <g id="aab831b6-9565-4041-9a4b-5549d1567e3c" transform="translate(6.000000, 152.000000)" fill="#219AD8" fill-rule="nonzero" opacity="0.1">
                        <path d="M201.54,4.62 C166.45,-1.27 109.54,-1.27 74.46,4.62 C48.66,8.95 41.85,15.26 54.01,20.62 C39.87,20.12 24.84,21.01 13.93,23.29 C-4,27.05 -4,33.13 13.93,36.87 C31.86,40.61 60.88,40.62 78.79,36.87 C90.1,34.51 94.26,31.21 91.28,28.16 C125.87,31.7 171.62,30.97 201.54,25.95 C236.63,20.06 236.63,10.5 201.54,4.62 Z" id="Shape" style="mix-blend-mode: multiply;"></path>
                    </g>
                    <g id="e1e2c67a-2002-4761-af86-e5455d986106" transform="translate(50.000000, 12.000000)">
                        <rect id="Rectangle-path" fill="#2292D3" fill-rule="nonzero" x="0.64" y="0.5" width="186.73" height="134.54" rx="6"></rect>
                        <rect id="Rectangle-path" fill="url(#linearGradient-1)" fill-rule="nonzero" x="7.01" y="6.48" width="173.97" height="111.34" rx="6"></rect>
                        <path d="M60.37,140.98 L127.63,140.98" id="Shape" fill="#219AD8" fill-rule="nonzero"></path>
                        <path d="M60.37,148.06 L127.63,148.06 C136.74,148.06 136.75,133.91 127.63,133.91 L60.37,133.91 C51.26,133.91 51.25,148.06 60.37,148.06 Z" id="Shape" fill="#219AD8" fill-rule="nonzero"></path>
                        <path d="M53.99,151.27 L134.01,151.27" id="Shape" fill="#219AD8" fill-rule="nonzero"></path>
                        <path d="M54,155.62 L134,155.62 C139.6,155.62 139.61,146.92 134,146.92 L54,146.92 C48.4,146.92 48.39,155.62 54,155.62 Z" id="Shape" fill="#219AD8" fill-rule="nonzero"></path>
                        <rect id="Rectangle-path" x="7.01" y="6.48" width="173.97" height="111.34" rx="6"></rect>
                        <rect id="Rectangle-path" x="7.01" y="6.48" width="173.97" height="111.34" rx="6"></rect>
                    </g>
                    <g id="ba0e5677-6629-428b-baaa-03a57fd2abec" transform="translate(57.000000, 18.000000)">
                        <rect id="Rectangle-path" fill="#FFFFFF" fill-rule="nonzero" style="mix-blend-mode: overlay;" x="10" y="13.5" width="157" height="15"></rect>
                        <rect id="Rectangle-path" fill="#FFFFFF" fill-rule="nonzero" style="mix-blend-mode: overlay;" x="7" y="38.5" width="31" height="31"></rect>
                        <rect id="Rectangle-path" fill="#FFFFFF" fill-rule="nonzero" style="mix-blend-mode: overlay;" x="50" y="38.5" width="31" height="31"></rect>
                        <rect id="Rectangle-path" fill="#FFFFFF" fill-rule="nonzero" style="mix-blend-mode: overlay;" x="93" y="38.5" width="31" height="31"></rect>
                        <rect id="Rectangle-path" fill="#FFFFFF" fill-rule="nonzero" style="mix-blend-mode: overlay;" x="136" y="38.5" width="31" height="31"></rect>
                        <rect id="Rectangle-path" fill="#FFFFFF" fill-rule="nonzero" style="mix-blend-mode: overlay;" x="7" y="84.5" width="160" height="27"></rect>
                        <rect id="Rectangle-path" x="0.01" y="0.48" width="173.97" height="111.34" rx="6"></rect>
                    </g>
                    <g id="bb5d21d9-4b1e-4cbe-ac86-07adcbbc9f21" transform="translate(34.000000, 112.000000)">
                        <rect id="Rectangle-path" fill="#2292D3" fill-rule="nonzero" x="0.58" y="0.57" width="36.04" height="71.66" rx="6"></rect>
                        <rect id="Rectangle-path" fill="url(#linearGradient-2)" fill-rule="nonzero" x="1.81" y="6.94" width="33.58" height="56.12" rx="6"></rect>
                        <rect id="Rectangle-path" x="1.81" y="3.76" width="33.58" height="59.31" rx="6"></rect>
                        <rect id="Rectangle-path" x="1.81" y="3.76" width="33.58" height="59.31" rx="6"></rect>
                        <circle id="Oval" fill="#2E4DA7" fill-rule="nonzero" cx="18.6" cy="66.76" r="2.28"></circle>
                        <path d="M13.59,3.76 L23.62,3.76" id="Shape" fill="#2E4DA7" fill-rule="nonzero"></path>
                        <path d="M13.59,4.19 L23.59,4.19 C23.8274824,4.19 24.02,3.99748244 24.02,3.76 C24.02,3.52251756 23.8274824,3.33 23.59,3.33 L13.59,3.33 C13.3525176,3.33 13.16,3.52251756 13.16,3.76 C13.16,3.99748244 13.3525176,4.19 13.59,4.19 Z" id="Shape" fill="#2E4DA7" fill-rule="nonzero"></path>
                    </g>
                    <g id="fa6d27f3-2541-4cf9-92e4-72ce69aa74f1" transform="translate(35.000000, 118.000000)">
                        <path d="M28.39,0.94 L6.81,0.94 C3.4962915,0.94 0.81,3.6262915 0.81,6.94 L0.81,51.06 C0.81215027,53.230259 1.98610639,55.2301907 3.88,56.29 L3.88,9.91 L32,9.91 L32,55.85 C33.5042556,54.7169004 34.3892203,52.9432682 34.39,51.06 L34.39,6.94 C34.39,3.6262915 31.7037085,0.94 28.39,0.94 Z M32,7.22 L3.54,7.22 L3.54,4.5 L32,4.5 L32,7.22 Z" id="Shape"></path>
                        <rect id="Rectangle-path" fill="#FFFFFF" fill-rule="nonzero" style="mix-blend-mode: overlay;" x="3.54" y="4.5" width="28.46" height="2.72"></rect>
                        <path d="M3.88,9.91 L3.88,56.29 C4.77472405,56.7930671 5.7835477,57.0581846 6.81,57.06 L28.39,57.06 C29.6935021,57.0636916 30.9620272,56.6385073 32,55.85 L32,9.91 L3.88,9.91 Z" id="Shape" fill="#FFFFFF" fill-rule="nonzero" style="mix-blend-mode: overlay;"></path>
                    </g>
                    <g id="a6fddde0-f044-4468-ae14-75759f432bba" transform="translate(22.000000, 50.000000)" fill-rule="nonzero">
                        <path d="M20,102.02 C23.392552,101.753662 26.009706,98.9229906 26.009706,95.52 C26.009706,92.1170094 23.392552,89.2863383 20,89.02 L8,89.02 C5.5560493,88.8281333 3.21102696,90.0233634 1.93027211,92.1136684 C0.649517253,94.2039733 0.649517253,96.8360267 1.93027211,98.9263316 C3.21102696,101.016637 5.5560493,102.211867 8,102.02 L20,102.02 Z" id="Shape" stroke="#70F2EE" stroke-width="0.36" fill="#219AD8"></path>
                        <polygon id="Shape" fill="#70F2EE" points="8.06 95.76 11.19 96.87 11.19 98.41 6.46 96.41 6.46 95.11 11.19 93.11 11.19 94.64"></polygon>
                        <polygon id="Shape" fill="#70F2EE" points="13 99.85 11.82 99.85 14.76 91.15 16 91.15"></polygon>
                        <polygon id="Shape" fill="#70F2EE" points="20 95.74 16.8 94.63 16.8 93.1 21.59 95.1 21.59 96.39 16.8 98.39 16.8 96.86"></polygon>
                        <path d="M42.06,24.5 C48.687417,24.5 54.06,19.127417 54.06,12.5 C54.06,5.872583 48.687417,0.5 42.06,0.5 L19.94,0.5 C13.312583,0.5 7.94,5.872583 7.94,12.5 C7.94,19.127417 13.312583,24.5 19.94,24.5 L42.06,24.5 Z" id="Shape" stroke="#70F2EE" stroke-width="0.67" fill="#219AD8"></path>
                        <polygon id="Shape" fill="#70F2EE" points="20.06 12.98 25.83 14.98 25.83 17.82 17.12 14.12 17.12 11.77 25.83 8.07 25.83 10.91"></polygon>
                        <polygon id="Shape" fill="#70F2EE" points="29.16 20.5 27 20.5 32.43 4.5 34.6 4.5"></polygon>
                        <polygon id="Shape" fill="#70F2EE" points="42 12.95 36.07 10.9 36.07 8.08 44.88 11.78 44.88 14.15 36.07 17.86 36.07 15.03"></polygon>
                    </g>
                    <g id="bf5279b3-9d41-4e6b-94bb-a85f22aca390" transform="translate(0.000000, 16.000000)" fill="#70F2EE" fill-rule="nonzero" opacity="0.44">
                        <path d="M37.64,6.28 L32.56,6.28 L32.56,1.2 C32.5167488,0.832362351 32.2051731,0.555293611 31.835,0.555293611 C31.4648269,0.555293611 31.1532512,0.832362351 31.11,1.2 L31.11,6.28 L26,6.28 C25.602355,6.28 25.28,6.60235498 25.28,7 C25.28,7.39764502 25.602355,7.72 26,7.72 L31.07,7.72 L31.07,12.8 C31.1132512,13.1676376 31.4248269,13.4447064 31.795,13.4447064 C32.1651731,13.4447064 32.4767488,13.1676376 32.52,12.8 L32.52,7.72 L37.6,7.72 C37.8572312,7.72714531 38.0987347,7.59651663 38.2335383,7.37732051 C38.3683419,7.15812439 38.3759659,6.88366194 38.2535383,6.65732051 C38.1311107,6.43097908 37.8972312,6.28714531 37.64,6.28 Z" id="Shape" style="mix-blend-mode: hard-light;"></path>
                        <path d="M25.61,23.35 L24.1,23.35 L24.1,21.83 C24.1,21.7084974 24.0015026,21.61 23.88,21.61 C23.7584974,21.61 23.66,21.7084974 23.66,21.83 L23.66,23.35 L22.15,23.35 C22.048822,23.3719471 21.9766369,23.461469 21.9766369,23.565 C21.9766369,23.668531 22.048822,23.7580529 22.15,23.78 L23.66,23.78 L23.66,25.29 C23.66,25.4115026 23.7584974,25.51 23.88,25.51 C24.0015026,25.51 24.1,25.4115026 24.1,25.29 L24.1,23.78 L25.61,23.78 C25.711178,23.7580529 25.7833631,23.668531 25.7833631,23.565 C25.7833631,23.461469 25.711178,23.3719471 25.61,23.35 Z" id="Shape" style="mix-blend-mode: hard-light;"></path>
                        <path d="M18.05,15.13 L15.67,15.13 L15.67,12.75 C15.67,12.5622232 15.5177768,12.41 15.33,12.41 C15.1422232,12.41 14.99,12.5622232 14.99,12.75 L14.99,15.13 L12.6,15.13 C12.4122232,15.13 12.26,15.2822232 12.26,15.47 C12.26,15.6577768 12.4122232,15.81 12.6,15.81 L15,15.81 L15,18.19 C15,18.3777768 15.1522232,18.53 15.34,18.53 C15.5277768,18.53 15.68,18.3777768 15.68,18.19 L15.68,15.81 L18.06,15.81 C18.2477768,15.8072386 18.3977614,15.6527768 18.395,15.465 C18.3922386,15.2772232 18.2377768,15.1272386 18.05,15.13 Z" id="Shape" style="mix-blend-mode: hard-light;"></path>
                        <g id="Group" style="mix-blend-mode: hard-light;" transform="translate(0.000000, 76.000000)">
                            <path d="M19.11,32.83 L17.94,32.83 L17.94,31.66 C17.9211919,31.5841734 17.8531244,31.5309268 17.775,31.5309268 C17.6968756,31.5309268 17.6288081,31.5841734 17.61,31.66 L17.61,32.83 L16.44,32.83 C16.3461116,32.83 16.27,32.9061116 16.27,33 C16.27,33.0938884 16.3461116,33.17 16.44,33.17 L17.61,33.17 L17.61,34.34 C17.6288081,34.4158266 17.6968756,34.4690732 17.775,34.4690732 C17.8531244,34.4690732 17.9211919,34.4158266 17.94,34.34 L17.94,33.17 L19.11,33.17 C19.2038884,33.17 19.28,33.0938884 19.28,33 C19.28,32.9061116 19.2038884,32.83 19.11,32.83 Z" id="Shape" style="mix-blend-mode: hard-light;"></path>
                            <path d="M31.58,3.93 L28.58,3.93 L28.58,0.93 C28.58,0.692517578 28.3874824,0.500000051 28.15,0.500000051 C27.9125176,0.500000051 27.72,0.692517578 27.72,0.93 L27.72,3.93 L24.72,3.93 C24.4825176,3.93 24.29,4.12251756 24.29,4.36 C24.29,4.59748244 24.4825176,4.79 24.72,4.79 L27.72,4.79 L27.72,7.79 C27.72,8.02748244 27.9125176,8.22 28.15,8.22 C28.3874824,8.22 28.58,8.02748244 28.58,7.79 L28.58,4.79 L31.58,4.79 C31.7336242,4.79 31.8755788,4.70804246 31.9523909,4.575 C32.029203,4.44195754 32.029203,4.27804246 31.9523909,4.145 C31.8755788,4.01195754 31.7336242,3.93 31.58,3.93 Z" id="Shape" style="mix-blend-mode: hard-light;"></path>
                            <path d="M29.11,22.83 L27.94,22.83 L27.94,21.66 C27.9211919,21.5841734 27.8531244,21.5309268 27.775,21.5309268 C27.6968756,21.5309268 27.6288081,21.5841734 27.61,21.66 L27.61,22.83 L26.44,22.83 C26.3461116,22.83 26.27,22.9061116 26.27,23 C26.27,23.0938884 26.3461116,23.17 26.44,23.17 L27.61,23.17 L27.61,24.34 C27.6288081,24.4158266 27.6968756,24.4690732 27.775,24.4690732 C27.8531244,24.4690732 27.9211919,24.4158266 27.94,24.34 L27.94,23.17 L29.11,23.17 C29.2038884,23.17 29.28,23.0938884 29.28,23 C29.28,22.9061116 29.2038884,22.83 29.11,22.83 Z" id="Shape" style="mix-blend-mode: hard-light;"></path>
                            <path d="M14.75,12.6 L12.9,12.6 L12.9,10.75 C12.8752555,10.6232164 12.7641758,10.5317204 12.635,10.5317204 C12.5058242,10.5317204 12.3947445,10.6232164 12.37,10.75 L12.37,12.6 L10.53,12.6 C10.4032164,12.6247445 10.3117204,12.7358242 10.3117204,12.865 C10.3117204,12.9941758 10.4032164,13.1052555 10.53,13.13 L12.37,13.13 L12.37,14.97 C12.3947445,15.0967836 12.5058242,15.1882796 12.635,15.1882796 C12.7641758,15.1882796 12.8752555,15.0967836 12.9,14.97 L12.9,13.13 L14.75,13.13 C14.8767836,13.1052555 14.9682796,12.9941758 14.9682796,12.865 C14.9682796,12.7358242 14.8767836,12.6247445 14.75,12.6 Z" id="Shape" style="mix-blend-mode: hard-light;"></path>
                            <path d="M4.75,22.6 L2.9,22.6 L2.9,20.75 C2.87525547,20.6232164 2.76417578,20.5317204 2.635,20.5317204 C2.50582422,20.5317204 2.39474453,20.6232164 2.37,20.75 L2.37,22.6 L0.53,22.6 C0.403216363,22.6247445 0.311720402,22.7358242 0.311720402,22.865 C0.311720402,22.9941758 0.403216363,23.1052555 0.53,23.13 L2.37,23.13 L2.37,24.97 C2.39474453,25.0967836 2.50582422,25.1882796 2.635,25.1882796 C2.76417578,25.1882796 2.87525547,25.0967836 2.9,24.97 L2.9,23.13 L4.75,23.13 C4.87678364,23.1052555 4.9682796,22.9941758 4.9682796,22.865 C4.9682796,22.7358242 4.87678364,22.6247445 4.75,22.6 Z" id="Shape" style="mix-blend-mode: hard-light;"></path>
                        </g>
                    </g>
                </g>
            </g>
        </g>
    </g>
</svg>