<?xml version="1.0" encoding="UTF-8"?>
<svg width="46px" height="55px" viewBox="0 0 46 55" version="1.1" xmlns="http://www.w3.org/2000/svg" xmlns:xlink="http://www.w3.org/1999/xlink">
    <!-- Generator: Sketch 51.3 (57544) - http://www.bohemiancoding.com/sketch -->
    <title>logo_acc_02</title>
    <desc>Created with Sketch.</desc>
    <defs></defs>
    <g id="Symbols" stroke="none" stroke-width="1" fill="none" fill-rule="evenodd">
        <g id="Loghi/ACC_02" transform="translate(-21.000000, -14.000000)" fill="#FFFFFF">
            <g id="Group-3-Copy-2" transform="translate(21.000000, 1.000000)">
                <g id="logo_acc_02" transform="translate(0.000000, 13.000000)">
                    <path d="M17.7559614,23.8520652 L20.8285902,9.47199697 L24.671272,9.47199697 L26.9897038,20.3196106 C30.3477417,19.3758303 33.8071205,18.7581333 37.3285447,18.4906485 L33.244575,0.338906061 L12.2552871,0.338906061 L5.03388561,32.4384667 C8.88897652,28.9921864 13.1708023,26.1008682 17.7559614,23.8520652" id="Fill-1"></path>
                    <path d="M1.99276212,45.9551379 L-0.000275757576,54.8124712 L11.0534667,54.8124712 L13.2174742,44.9624106 L15.1939667,35.8355242 C10.2641106,38.4062742 5.78167121,41.8146379 1.99276212,45.9551379" id="Fill-3"></path>
                    <path d="M29.2756652,31.020728 L30.2001424,35.346675 L32.2821121,44.9623417 L34.4433621,54.8124023 L45.4998621,54.8124023 L39.9750591,30.254122 C36.3633242,30.1245159 32.7757182,30.3844174 29.2756652,31.020728" id="Fill-5"></path>
                    <path d="M26.1969697,27.5757576 C26.1969697,29.4791742 24.6541061,31.0227273 22.75,31.0227273 C20.8458939,31.0227273 19.3030303,29.4791742 19.3030303,27.5757576 C19.3030303,25.6723409 20.8458939,24.1287879 22.75,24.1287879 C24.6541061,24.1287879 26.1969697,25.6723409 26.1969697,27.5757576" id="Fill-7"></path>
                </g>
            </g>
        </g>
    </g>
</svg>