<?xml version="1.0" encoding="UTF-8"?>
<svg width="45px" height="56px" viewBox="0 0 45 56" version="1.1" xmlns="http://www.w3.org/2000/svg" xmlns:xlink="http://www.w3.org/1999/xlink">
    <!-- Generator: Sketch 51.3 (57544) - http://www.bohemiancoding.com/sketch -->
    <title>logo_acc_01</title>
    <desc>Created with Sketch.</desc>
    <defs></defs>
    <g id="Symbols" stroke="none" stroke-width="1" fill="none" fill-rule="evenodd">
        <g id="Loghi/ACC_01" transform="translate(-21.000000, -12.000000)" fill="#FFFFFF">
            <g id="Group-3-Copy-2" transform="translate(21.000000, 1.000000)">
                <g id="logo_acc_01" transform="translate(0.362319, 11.000000)">
                    <path d="M22.2700638,20.0431304 C10.7218899,20.0431304 1.22867246,11.2535652 0.111107246,-1.42108547e-14 C0.0380637681,0.732869565 0.000730434783,1.47547826 0.000730434783,2.22701449 C0.000730434783,14.5267246 9.97116522,24.4971594 22.2700638,24.4971594 C34.5689623,24.4971594 44.5393971,14.5267246 44.5393971,2.22701449 C44.5393971,1.47547826 44.5020638,0.732869565 44.4290203,-1.42108547e-14 C43.3114551,11.2535652 33.8182377,20.0431304 22.2700638,20.0431304" id="Fill-1"></path>
                    <polygon id="Fill-3" points="28.0510493 49.6302029 29.3617739 55.6043478 36.0671652 55.6043478 28.6345855 22.5684058 15.905542 22.5684058 8.47296232 55.6043478 15.1767304 55.6043478 16.4890783 49.6302029 17.7527304 43.7988986 21.1046145 28.1067246 23.435513 28.1067246 26.7873971 43.7988986"></polygon>
                    <path d="M15.7773101,7.14990145 C15.7773101,3.56427826 18.6844406,0.657147826 22.2700638,0.657147826 C25.855687,0.657147826 28.7628174,3.56427826 28.7628174,7.14990145 C28.7628174,10.7355246 25.855687,13.6426551 22.2700638,13.6426551 C18.6844406,13.6426551 15.7773101,10.7355246 15.7773101,7.14990145" id="Fill-5"></path>
                </g>
            </g>
        </g>
    </g>
</svg>