<?xml version="1.0" encoding="UTF-8"?>
<svg width="56px" height="56px" viewBox="0 0 56 56" version="1.1" xmlns="http://www.w3.org/2000/svg" xmlns:xlink="http://www.w3.org/1999/xlink">
    <!-- Generator: Sketch 51.3 (57544) - http://www.bohemiancoding.com/sketch -->
    <title>logo_acc_03</title>
    <desc>Created with Sketch.</desc>
    <defs></defs>
    <g id="Symbols" stroke="none" stroke-width="1" fill="none" fill-rule="evenodd">
        <g id="Loghi/ACC_03" transform="translate(-21.000000, -13.000000)" fill="#FFFFFF">
            <g id="Group-3-Copy-2" transform="translate(21.000000, 1.000000)">
                <g id="logo_acc_03" transform="translate(0.000000, 12.000000)">
                    <path d="M25.4403273,9.71573497 C24.1745851,8.9680651 22.9245283,8.39475853 21.7194817,8 L12,29.7340378 C13.3639464,33.6802283 15.3634917,37.554581 17.8001819,41 L30,13.093501 C28.5426233,11.7857762 27.0150034,10.6454401 25.4403273,9.71573497" id="Fill-1"></path>
                    <path d="M0,56 L11.160093,56 L14,49.6776746 C11.5841045,46.3271938 9.49730291,42.7153231 7.81026377,39 L0,56 Z" id="Fill-3"></path>
                    <path d="M9.45153651,31 L8,31 C10.8877497,40.2979167 16.5580754,49.4805556 23.5385451,56 L33,56 C31.1737386,55.5784722 29.2409105,54.8083333 27.2370379,53.6548611 C19.5064219,49.2048611 12.8003789,40.3055556 9.45153651,31" id="Fill-5"></path>
                    <path d="M31,3.44181317 C17.1930556,-4.5935001 6,1.92001066 6,17.9906372 C6,18.2923377 6.00833333,18.5961382 6.01527778,18.8999387 L7.25416667,18.8999387 C7.25347222,18.8397386 7.25,18.7781385 7.25,18.7179384 C7.25,5.86171717 16.2041667,0.650908561 27.25,7.07901918 C38.2958333,13.5071298 47.25,29.1402556 47.25,41.9971769 C47.25,49.6817896 44.0493056,54.6307977 39.1166667,56 L54.5569444,56 C55.4888889,53.4932959 56,50.5098909 56,47.0896853 C56,31.0190587 44.8069444,11.4771264 31,3.44181317" id="Fill-7"></path>
                    <path d="M11,24.5 C11,26.4327 9.4334,28 7.5,28 C5.5666,28 4,26.4327 4,24.5 C4,22.5673 5.5666,21 7.5,21 C9.4334,21 11,22.5673 11,24.5" id="Fill-9"></path>
                </g>
            </g>
        </g>
    </g>
</svg>