<?xml version="1.0" encoding="UTF-8"?>
<svg width="24px" height="25px" viewBox="0 0 24 25" version="1.1" xmlns="http://www.w3.org/2000/svg" xmlns:xlink="http://www.w3.org/1999/xlink">
    <!-- Generator: Sketch 51.3 (57544) - http://www.bohemiancoding.com/sketch -->
    <title>ic-accordion close</title>
    <desc>Created with Sketch.</desc>
    <defs></defs>
    <g id="HOMEPAGE" stroke="none" stroke-width="1" fill="none" fill-rule="evenodd">
        <g id="1.0-B_HOME_DICHIARAZIONE" transform="translate(-487.000000, -1981.000000)" fill="#0066CC">
            <g id="Domande-frequenti" transform="translate(0.000000, 1627.000000)">
                <g id="domande-frequenti" transform="translate(93.000000, 122.000000)">
                    <path d="M395.333333,246 L404.666667,246 L404.666667,255.333333 C404.666667,255.722224 404.791664,256.041666 405.041664,256.291667 C405.291669,256.541668 405.611109,256.666667 406,256.666667 C406.388891,256.666667 406.708331,256.541668 406.958336,256.291667 C407.208336,256.041666 407.333333,255.722224 407.333333,255.333333 L407.333333,246 L416.666667,246 C417.055557,246 417.374997,245.875003 417.625003,245.625003 C417.875003,245.374997 418,245.055557 418,244.666667 C418,244.277776 417.875003,243.958336 417.625003,243.708331 C417.374997,243.458331 417.055557,243.333333 416.666667,243.333333 L407.333333,243.333333 L407.333333,234 C407.333333,233.611109 407.208336,233.291669 406.958336,233.041664 C406.708331,232.791664 406.388891,232.666667 406,232.666667 C405.611109,232.666667 405.291669,232.791664 405.041664,233.041664 C404.791664,233.291669 404.666667,233.611109 404.666667,234 L404.666667,243.333333 L395.333333,243.333333 C394.944443,243.333333 394.625001,243.458331 394.375,243.708331 C394.124999,243.958336 394,244.277776 394,244.666667 C394,245.055557 394.124999,245.374997 394.375,245.625003 C394.625001,245.875003 394.944443,246 395.333333,246 Z" id="ic-accordion-close"></path>
                </g>
            </g>
        </g>
    </g>
</svg>