<?xml version="1.0" encoding="UTF-8"?>
<svg width="83px" height="80px" viewBox="0 0 83 80" version="1.1" xmlns="http://www.w3.org/2000/svg" xmlns:xlink="http://www.w3.org/1999/xlink">
    <!-- Generator: Sketch 51.3 (57544) - http://www.bohemiancoding.com/sketch -->
    <title>icona_completa</title>
    <desc>Created with Sketch.</desc>
    <defs>
        <linearGradient x1="50%" y1="15.823875%" x2="50%" y2="100%" id="linearGradient-1">
            <stop stop-color="#2079D4" offset="0%"></stop>
            <stop stop-color="#004E9C" offset="100%"></stop>
        </linearGradient>
    </defs>
    <g id="HOMEPAGE" stroke="none" stroke-width="1" fill="none" fill-rule="evenodd">
        <g id="1.0-B_HOME_DICHIARAZIONE" transform="translate(-559.000000, -628.000000)">
            <g id="Group-4" transform="translate(107.000000, 268.000000)">
                <g id="card" transform="translate(0.000000, 312.000000)">
                    <g id="Group-27" transform="translate(404.000000, 0.000000)">
                        <g id="icona_completa" transform="translate(48.000000, 48.000000)">
                            <rect id="borders" x="27.5802469" y="5.92592593" width="55.308642" height="55.308642"></rect>
                            <path d="M80.8484393,15.9246294 C79.57343,14.5852897 77.8054506,13.827256 75.9566871,13.827256 C74.0377534,13.8173933 72.1938109,14.5720602 70.8319944,15.9246294 L43.8108873,43.1904843 L41.4814815,55.308642 L53.5943916,52.978227 L80.8484393,25.9454137 C82.200343,24.6292543 82.962963,22.8222161 82.962963,20.9350215 C82.962963,19.047827 82.200343,17.2407888 80.8484393,15.9246294 Z M67.5708263,22.4497913 L69.2014103,20.8185008 L75.9566871,27.5767041 L74.3261031,29.2079946 L67.5708263,22.4497913 Z M65.9402422,24.3141232 L68.5025886,26.6445382 L48.93558,46.2200237 L46.3732336,43.6565673 L65.9402422,24.3141232 Z M46.3732336,50.4147706 C46.0565722,49.9590345 45.530018,49.6956434 44.9755902,49.7156461 L45.6744119,46.2200237 L50.566164,51.1138951 L47.0720554,51.8130196 C47.0920494,51.2583515 46.8287723,50.7315692 46.3732336,50.4147706 Z M53.1285104,50.4147706 L50.566164,47.8513142 L70.1331726,28.2758286 L72.4625784,30.8392851 L53.1285104,50.4147706 Z M57.2839506,76.3753086 L57.2839506,65.1851852 L61.2345679,65.1851852 L61.2345679,77.037037 L60.4028082,77.037037 C60.5141132,77.2304145 60.5777778,77.454686 60.5777778,77.6938272 C60.5777778,78.4220248 59.9874569,79.0123457 59.2592593,79.0123457 L1.31851852,79.0123457 C0.526748971,79.0123457 0,78.4855967 0,77.6938272 L0,17.1160494 C0,16.9876543 0.128395062,16.8526749 0.128395062,16.5893004 C0.263374486,16.4609053 0.263374486,16.3325103 0.391769547,16.1975309 L16.1975309,0.391769547 C16.3325103,0.263374486 16.4609053,0.263374486 16.7242798,0.128395062 C16.8526749,0 16.9876543,0 17.1160494,0 L59.2592593,0 C60.0493827,0 60.5777778,0.526748971 60.5777778,1.31851852 L60.5777778,17.1160494 C60.5777778,17.8442471 59.9874569,18.4345679 59.2592593,18.4345679 C58.5310616,18.4345679 57.9407407,17.8442471 57.9407407,17.1160494 L57.9407407,2.63703704 L18.4345679,2.63703704 L18.4345679,17.1160494 C18.4345679,17.9078189 17.9078189,18.4345679 17.1160494,18.4345679 L2.63703704,18.4345679 L2.63703704,76.3753086 L57.2839506,76.3753086 Z M79.2178552,24.3141232 L77.5872712,25.9454137 L70.8319944,19.1872103 L72.4625784,17.5559199 C73.4078866,16.6633915 74.6568834,16.1635764 75.9566871,16.1576709 C77.1855384,16.1751819 78.3576967,16.677753 79.2178552,17.5559199 C81.0222261,19.4470298 81.0222261,22.4230133 79.2178552,24.3141232 Z M15.8057613,15.8057613 L15.8057613,4.47572016 L4.47572016,15.8057613 L15.8057613,15.8057613 Z M26.3374486,9.22139918 C25.6092509,9.22139918 25.01893,8.63107833 25.01893,7.90288066 C25.01893,7.17468299 25.6092509,6.58436214 26.3374486,6.58436214 L31.6032922,6.58436214 C32.3314899,6.58436214 32.9218107,7.17468299 32.9218107,7.90288066 C32.9218107,8.63107833 32.3314899,9.22139918 31.6032922,9.22139918 L26.3374486,9.22139918 Z M26.9975309,16.4641975 C26.2693332,16.4641975 25.6790123,15.8738767 25.6790123,15.145679 C25.6790123,14.4174813 26.2693332,13.8271605 26.9975309,13.8271605 L44.1135802,13.8271605 C44.8417779,13.8271605 45.4320988,14.4174813 45.4320988,15.145679 C45.4320988,15.8738767 44.8417779,16.4641975 44.1135802,16.4641975 L26.9975309,16.4641975 Z M23.7037037,31.6049383 C22.6127709,31.6049383 21.7283951,30.7205625 21.7283951,29.6296296 C21.7283951,28.5386968 22.6127709,27.654321 23.7037037,27.654321 L35.5555556,27.654321 C36.6464884,27.654321 37.5308642,28.5386968 37.5308642,29.6296296 C37.5308642,30.7205625 36.6464884,31.6049383 35.5555556,31.6049383 L23.7037037,31.6049383 Z M23.7037037,41.4814815 C22.6127709,41.4814815 21.7283951,40.5971057 21.7283951,39.5061728 C21.7283951,38.41524 22.6127709,37.5308642 23.7037037,37.5308642 L35.5555556,37.5308642 C36.6464884,37.5308642 37.5308642,38.41524 37.5308642,39.5061728 C37.5308642,40.5971057 36.6464884,41.4814815 35.5555556,41.4814815 L23.7037037,41.4814815 Z M23.7037037,51.3580247 C22.6127709,51.3580247 21.7283951,50.4736489 21.7283951,49.382716 C21.7283951,48.2917832 22.6127709,47.4074074 23.7037037,47.4074074 L35.5555556,47.4074074 C36.6464884,47.4074074 37.5308642,48.2917832 37.5308642,49.382716 C37.5308642,50.4736489 36.6464884,51.3580247 35.5555556,51.3580247 L23.7037037,51.3580247 Z M11.8518519,25.6790123 L19.7530864,25.6790123 L19.7530864,33.5802469 L11.8518519,33.5802469 L11.8518519,25.6790123 Z M11.8518519,35.5555556 L19.7530864,35.5555556 L19.7530864,43.4567901 L11.8518519,43.4567901 L11.8518519,35.5555556 Z M11.8518519,45.4320988 L19.7530864,45.4320988 L19.7530864,53.3333333 L11.8518519,53.3333333 L11.8518519,45.4320988 Z M13.8271605,27.654321 L13.8271605,31.6049383 L17.7777778,31.6049383 L17.7777778,27.654321 L13.8271605,27.654321 Z M13.8271605,37.5308642 L13.8271605,41.4814815 L17.7777778,41.4814815 L17.7777778,37.5308642 L13.8271605,37.5308642 Z M13.8271605,47.4074074 L13.8271605,51.3580247 L17.7777778,51.3580247 L17.7777778,47.4074074 L13.8271605,47.4074074 Z M13.1687243,61.8962963 C12.4405266,61.8962963 11.8502058,61.3059754 11.8502058,60.5777778 C11.8502058,59.8495801 12.4405266,59.2592593 13.1687243,59.2592593 L44.7720165,59.2592593 C45.5002141,59.2592593 46.090535,59.8495801 46.090535,60.5777778 C46.090535,61.3059754 45.5002141,61.8962963 44.7720165,61.8962963 L13.1687243,61.8962963 Z M13.1687243,68.4806584 C12.4405266,68.4806584 11.8502058,67.8903376 11.8502058,67.1621399 C11.8502058,66.4339422 12.4405266,65.8436214 13.1687243,65.8436214 L44.7720165,65.8436214 C45.5002141,65.8436214 46.090535,66.4339422 46.090535,67.1621399 C46.090535,67.8903376 45.5002141,68.4806584 44.7720165,68.4806584 L13.1687243,68.4806584 Z" id="Combined-Shape" fill="url(#linearGradient-1)"></path>
                        </g>
                    </g>
                </g>
            </g>
        </g>
    </g>
</svg>