<?xml version="1.0" encoding="UTF-8"?>
<svg width="78px" height="80px" viewBox="0 0 78 80" version="1.1" xmlns="http://www.w3.org/2000/svg" xmlns:xlink="http://www.w3.org/1999/xlink">
    <!-- Generator: Sketch 51.3 (57544) - http://www.bohemiancoding.com/sketch -->
    <title>icona linee guida</title>
    <desc>Created with Sketch.</desc>
    <defs></defs>
    <g id="HOMEPAGE" stroke="none" stroke-width="1" fill="none" fill-rule="evenodd">
        <g id="1.0-B_HOME_DICHIARAZIONE" transform="translate(-137.000000, -1110.000000)" fill="#02509F">
            <g id="Group-7" transform="translate(0.000000, 1054.000000)">
                <g id="Group" transform="translate(137.000000, 56.000000)">
                    <g id="Group-15">
                        <path d="M8,64 L59.646,64 C60.128,64 60.585,64.106 61,64.291 L61,66 L10,66 C8.069,66 8.066,69 10,69 L61,69 L61,71 L10,71 C8.069,71 8.066,74 10,74 L61,74 L61,74.646 C61,75.393 60.393,76 59.646,76 L8,76 C5.794,76 4,74.205 4,72 L4,65.555 C5.062,64.596 6.459,64 8,64 Z M65,6 L61,6 L61,5.354 C61,4.607 60.393,4 59.646,4 L11,4 L11,57 C11,58.934 8,58.931 8,57 L8,4 C5.794,4 4,5.794 4,8 L4,63.079 C5.177,62.396 6.54,62 8,62 L59.646,62 C60.116,62 60.565,62.08 61,62.194 L61,58.007 C62.046,57.149 63.44,55.981 65,54.618 L65,67.354 L65,68 L65,74.646 C65,77.603 62.603,80 59.646,80 L8,80 C3.582,80 0,76.418 0,72 L0,8 C0,3.582 3.582,0 8,0 L59.646,0 C62.603,0 65,2.397 65,5.354 L65,6 Z M74,8 C76.209,8 78,9.791 78,12 L78,35.5 C78,42.227 57.82,58 57.82,58 C57.82,58 38,42.107 38,35.5 L38,12 C38,9.791 39.791,8 42,8 L74,8 Z M74,11 L42,11 C41.448,11 41,11.448 41,12 L41,35.5 C41,37.851 47.686,45.722 57.832,54.138 C59.729,52.58 62.818,49.969 65.876,47.067 C74.744,38.651 75,35.798 75,35.5 L75,12 C75,11.448 74.552,11 74,11 Z M45.3486,26.8223 C44.0276,25.3623 46.1906,23.1893 47.5166,24.6553 C50.7516,28.2313 53.9886,31.8073 57.2236,35.3843 C56.4216,35.4873 55.6196,35.5913 54.8166,35.6943 C59.2446,28.8823 63.6716,22.0703 68.1006,15.2583 C69.1726,13.6083 71.8256,15.1463 70.7466,16.8053 C66.3196,23.6173 61.8916,30.4293 57.4636,37.2413 C56.9526,38.0283 55.7486,38.3173 55.0566,37.5513 C51.8206,33.9753 48.5846,30.3993 45.3486,26.8223 Z" id="icona-linee-guida"></path>
                    </g>
                </g>
            </g>
        </g>
    </g>
</svg>