<?xml version="1.0" encoding="UTF-8"?>
<svg width="80px" height="80px" viewBox="0 0 80 80" version="1.1" xmlns="http://www.w3.org/2000/svg" xmlns:xlink="http://www.w3.org/1999/xlink">
    <!-- Generator: Sketch 51.3 (57544) - http://www.bohemiancoding.com/sketch -->
    <title>icona_pubblica</title>
    <desc>Created with Sketch.</desc>
    <defs>
        <linearGradient x1="50%" y1="15.823875%" x2="50%" y2="100%" id="linearGradient-1">
            <stop stop-color="#2079D4" offset="0%"></stop>
            <stop stop-color="#004E9C" offset="100%"></stop>
        </linearGradient>
    </defs>
    <g id="HOMEPAGE" stroke="none" stroke-width="1" fill="none" fill-rule="evenodd">
        <g id="1.0-B_HOME_DICHIARAZIONE" transform="translate(-963.000000, -628.000000)" fill="url(#linearGradient-1)">
            <g id="Group-4" transform="translate(107.000000, 268.000000)">
                <g id="card" transform="translate(0.000000, 312.000000)">
                    <g id="Group-39" transform="translate(808.000000, 0.000000)">
                        <g id="icona_pubblica" transform="translate(48.000000, 48.000000)">
                            <path d="M73.95,42.0454545 L68.1895455,47.8059091 L66.7990909,46.2168182 L70.9704545,42.0454545 L66.7990909,37.8740909 L68.1895455,36.285 L73.95,42.0454545 Z M51.9013636,36.285 L46.1409091,42.0454545 L51.9013636,47.8059091 L53.2918182,46.2168182 L49.1204545,42.0454545 L53.2918182,37.8740909 L51.9013636,36.285 Z M79.9090909,42.0454545 C79.9090909,53.015838 71.015838,61.9090909 60.0454545,61.9090909 C49.0750711,61.9090909 40.1818182,53.015838 40.1818182,42.0454545 C40.1818182,31.0750711 49.0750711,22.1818182 60.0454545,22.1818182 C65.3136185,22.1818182 70.3660121,24.2745881 74.0911665,27.9997426 C77.8163209,31.724897 79.9090909,36.7772906 79.9090909,42.0454545 Z M77.9227273,42.0454545 C77.9227273,32.1721094 69.9187996,24.1681818 60.0454545,24.1681818 C50.1721094,24.1681818 42.1681818,32.1721094 42.1681818,42.0454545 C42.1681818,51.9187996 50.1721094,59.9227273 60.0454545,59.9227273 C69.9187996,59.9227273 77.9227273,51.9187996 77.9227273,42.0454545 Z M58,77.33 L58,66 L62,66 L62,78 L61.1578433,78 C61.2705396,78.1957947 61.335,78.4228696 61.335,78.665 C61.335,79.4023001 60.7373001,80 60,80 L1.335,80 C0.533333333,80 0,79.4666667 0,78.665 L0,17.33 C0,17.2 0.13,17.0633333 0.13,16.7966667 C0.266666667,16.6666667 0.266666667,16.5366667 0.396666667,16.4 L16.4,0.396666667 C16.5366667,0.266666667 16.6666667,0.266666667 16.9333333,0.13 C17.0633333,0 17.2,0 17.33,0 L60,0 C60.8,0 61.335,0.533333333 61.335,1.335 L61.335,17.33 C61.335,18.0673001 60.7373001,18.665 60,18.665 C59.2626999,18.665 58.665,18.0673001 58.665,17.33 L58.665,2.67 L18.665,2.67 L18.665,17.33 C18.665,18.1316667 18.1316667,18.665 17.33,18.665 L2.67,18.665 L2.67,77.33 L58,77.33 Z M55.2781818,50.9840909 L62.8263636,32.5109091 L64.6140909,33.1068182 L57.2645455,51.58 L55.2781818,50.9840909 Z M16.0033333,16.0033333 L16.0033333,4.53166667 L4.53166667,16.0033333 L16.0033333,16.0033333 Z M26.6666667,9.33666667 C25.9293665,9.33666667 25.3316667,8.73896681 25.3316667,8.00166667 C25.3316667,7.26436653 25.9293665,6.66666667 26.6666667,6.66666667 L31.9983333,6.66666667 C32.7356335,6.66666667 33.3333333,7.26436653 33.3333333,8.00166667 C33.3333333,8.73896681 32.7356335,9.33666667 31.9983333,9.33666667 L26.6666667,9.33666667 Z M27.335,16.67 C26.5976999,16.67 26,16.0723001 26,15.335 C26,14.5976999 26.5976999,14 27.335,14 L44.665,14 C45.4023001,14 46,14.5976999 46,15.335 C46,16.0723001 45.4023001,16.67 44.665,16.67 L27.335,16.67 Z M24,32 C22.8954305,32 22,31.1045695 22,30 C22,28.8954305 22.8954305,28 24,28 L36,28 C37.1045695,28 38,28.8954305 38,30 C38,31.1045695 37.1045695,32 36,32 L24,32 Z M24,42 C22.8954305,42 22,41.1045695 22,40 C22,38.8954305 22.8954305,38 24,38 L36,38 C37.1045695,38 38,38.8954305 38,40 C38,41.1045695 37.1045695,42 36,42 L24,42 Z M24,52 C22.8954305,52 22,51.1045695 22,50 C22,48.8954305 22.8954305,48 24,48 L36,48 C37.1045695,48 38,48.8954305 38,50 C38,51.1045695 37.1045695,52 36,52 L24,52 Z M12,26 L20,26 L20,34 L12,34 L12,26 Z M12,36 L20,36 L20,44 L12,44 L12,36 Z M12,46 L20,46 L20,54 L12,54 L12,46 Z M14,28 L14,32 L18,32 L18,28 L14,28 Z M14,38 L14,42 L18,42 L18,38 L14,38 Z M14,48 L14,52 L18,52 L18,48 L14,48 Z M13.3333333,62.67 C12.5960332,62.67 11.9983333,62.0723001 11.9983333,61.335 C11.9983333,60.5976999 12.5960332,60 13.3333333,60 L45.3316667,60 C46.0689668,60 46.6666667,60.5976999 46.6666667,61.335 C46.6666667,62.0723001 46.0689668,62.67 45.3316667,62.67 L13.3333333,62.67 Z M13.3333333,69.3366667 C12.5960332,69.3366667 11.9983333,68.7389668 11.9983333,68.0016667 C11.9983333,67.2643665 12.5960332,66.6666667 13.3333333,66.6666667 L45.3316667,66.6666667 C46.0689668,66.6666667 46.6666667,67.2643665 46.6666667,68.0016667 C46.6666667,68.7389668 46.0689668,69.3366667 45.3316667,69.3366667 L13.3333333,69.3366667 Z" id="Combined-Shape"></path>
                        </g>
                    </g>
                </g>
            </g>
        </g>
    </g>
</svg>